<svg width="115" height="45" viewBox="0 0 115 45" fill="none" xmlns="http://www.w3.org/2000/svg">
<g clip-path="url(#clip0_547_5071)">
<path d="M62.8558 0.539551C50.6699 0.539315 40.7911 10.4625 40.791 22.7035C40.7911 34.9444 50.6699 44.8676 62.8558 44.8674C68.8601 44.8671 74.3008 42.455 78.2789 38.5464C78.6946 38.1396 78.6022 37.3865 78.2789 37.0608L73.7459 32.4942C73.3072 32.0523 72.5936 32.1528 72.3638 32.3799C70.0592 34.6566 66.943 36.0534 63.5135 36.0533C56.4159 36.053 50.6624 30.0683 50.6629 22.6863C50.6629 15.3335 56.373 9.36151 63.4424 9.32049C63.4661 9.32042 63.4898 9.32042 63.5135 9.32049C66.8489 9.32034 69.8878 10.6416 72.1721 12.8086C72.4363 13.0593 73.0964 13.0246 73.4841 12.6336L77.9644 8.11623C78.1773 7.90155 78.5803 7.18432 78.1239 6.71182C74.1599 2.89163 68.7829 0.539744 62.8558 0.539551ZM17.6231 1.62488C17.2981 1.65313 16.5999 1.8476 16.21 2.94808C15.6902 4.41539 1.51239 42.1924 1.51239 42.1924C1.51239 42.1924 0.790402 43.6848 1.88775 43.6848H10.0883C10.0883 43.6848 10.9782 43.6379 11.475 42.1055L14.0772 34.0782H29.1697L31.8328 42.3937C31.8328 42.3937 32.1513 43.6848 33.3641 43.6848H41.9986C41.9986 43.6848 42.9228 43.63 42.3453 42.3353C41.7677 41.0406 27.79 2.77539 27.79 2.77539C27.79 2.77539 27.5598 1.62488 26.0004 1.62488H17.7987C17.7987 1.62488 17.7314 1.61543 17.6231 1.62488ZM82.5112 1.62488C82.5112 1.62488 81.4919 1.59259 81.4919 2.67589V42.6441C81.4919 42.6441 81.493 43.6848 82.4894 43.6848H99.3186C99.3186 43.6848 106.884 43.7043 110.871 39.7324C114.858 35.7604 113.771 29.8478 113.771 29.8478C113.771 29.8478 112.82 23.0771 105.299 21.362C105.299 21.362 112.05 19.4666 111.619 11.5678C110.984 4.65275 104.719 1.62488 98.2098 1.62488H82.5112ZM90.7795 8.97282H96.9632C96.9632 8.97282 102.173 8.9726 102.241 13.7796C102.309 18.5866 96.7818 18.4742 96.7818 18.4742H90.7795V8.97282ZM21.6682 10.6586L26.7924 26.6559H16.4832L21.6682 10.6586ZM90.7795 25.4025H97.7793C97.7793 25.4025 104.144 25.4468 104.189 30.9309C104.234 36.4149 98.0732 36.4158 98.0732 36.4158H90.7795V25.4025Z" fill="#1F419B"/>
<path d="M71.4387 22.6777C71.4387 23.6699 71.2426 24.6525 70.8614 25.5692C70.4803 26.486 69.9217 27.319 69.2174 28.0206C68.5132 28.7222 67.6771 29.2788 66.7569 29.6586C65.8368 30.0383 64.8506 30.2337 63.8546 30.2337C62.8587 30.2337 61.8725 30.0383 60.9523 29.6585C60.0322 29.2788 59.1961 28.7222 58.4918 28.0206C57.7876 27.319 57.2289 26.486 56.8478 25.5692C56.4667 24.6525 56.2705 23.6699 56.2705 22.6777C56.2705 21.6854 56.4667 20.7028 56.8478 19.7861C57.229 18.8693 57.7876 18.0363 58.4918 17.3347C59.1961 16.6331 60.0322 16.0765 60.9523 15.6968C61.8725 15.317 62.8587 15.1216 63.8546 15.1216C64.8506 15.1216 65.8368 15.317 66.7569 15.6968C67.6771 16.0765 68.5132 16.6331 69.2174 17.3347C69.9217 18.0363 70.4803 18.8693 70.8614 19.7861C71.2426 20.7028 71.4387 21.6854 71.4387 22.6777Z" fill="#00AEEF"/>
</g>
<defs>
<clipPath id="clip0_547_5071">
<rect width="113.376" height="44.4055" fill="white" transform="translate(0.915039 0.499512)"/>
</clipPath>
</defs>
</svg>
