<svg width="219" height="50" viewBox="0 0 219 50" fill="none" xmlns="http://www.w3.org/2000/svg">
  <path d="M0.360107 0C0.125256 0.495384 0.00341797 1.03677 0.00341797 1.58501C0.00341797 2.13324 0.125256 2.67461 0.360107 3.17C1.15576 3.17 1.91882 3.48607 2.48143 4.04868C3.04404 4.61128 3.36011 5.37435 3.36011 6.17C3.36011 6.96565 3.04404 7.72871 2.48143 8.29132C1.91882 8.85393 1.15576 9.17 0.360107 9.17C0.125005 9.70943 0.00366211 10.2916 0.00366211 10.88C0.00366211 11.4684 0.125005 12.0506 0.360107 12.59C1.15576 12.59 1.91882 12.9061 2.48143 13.4687C3.04404 14.0313 3.36011 14.7943 3.36011 15.59C3.36011 16.3856 3.04404 17.1487 2.48143 17.7113C1.91882 18.2739 1.15576 18.59 0.360107 18.59C0.125253 19.1277 0.00402832 19.7082 0.00402832 20.295C0.00402832 20.8818 0.125253 21.4623 0.360107 22C1.15576 22 1.91882 22.3161 2.48143 22.8787C3.04404 23.4413 3.36011 24.2044 3.36011 25C3.36011 25.7956 3.04404 26.5587 2.48143 27.1213C1.91882 27.6839 1.15576 28 0.360107 28C0.127328 28.54 0.00726318 29.1219 0.00726318 29.71C0.00726318 30.2981 0.127328 30.88 0.360107 31.42C1.15576 31.42 1.91882 31.7361 2.48143 32.2987C3.04404 32.8613 3.36011 33.6243 3.36011 34.42C3.36011 35.2156 3.04404 35.9787 2.48143 36.5413C1.91882 37.1039 1.15576 37.42 0.360107 37.42C0.125005 37.9594 0.00366211 38.5416 0.00366211 39.13C0.00366211 39.7184 0.125005 40.3006 0.360107 40.84C1.15576 40.84 1.91882 41.1561 2.48143 41.7187C3.04404 42.2813 3.36011 43.0443 3.36011 43.84C3.36011 44.6356 3.04404 45.3987 2.48143 45.9613C1.91882 46.5239 1.15576 46.84 0.360107 46.84C0.125425 47.3337 0.00366211 47.8734 0.00366211 48.42C0.00366211 48.9666 0.125425 49.5063 0.360107 50H220.36V0H0.360107Z" fill="#FF3C13" />
</svg>
